PathFileType	4	(X/Y/Z)	joints.trc
DataRate	CameraRate	NumFrames	NumMarkers	Units	OrigDataRate	OrigDataStartFrame	OrigNumFrames
30.0	30.0	14	17	m	30.0	51	100
Frame#	Time	smpl_pelvis			l_smpl_hip			r_smpl_hip			smpl_spine			l_smpl_knee			r_smpl_knee			l_smpl_ankle			r_smpl_ankle			l_smpl_mtp			r_smpl_mtp			smpl_head			l_smpl_shoulder			r_smpl_shoulder			l_smpl_elbow			r_smpl_elbow			l_smpl_hand			r_smpl_hand		
		X1	Y1	Z1	X2	Y2	Z2	X3	Y3	Z3	X4	Y4	Z4	X5	Y5	Z5	X6	Y6	Z6	X7	Y7	Z7	X8	Y8	Z8	X9	Y9	Z9	X10	Y10	Z10	X11	Y11	Z11	X12	Y12	Z12	X13	Y13	Z13	X14	Y14	Z14	X15	Y15	Z15	X16	Y16	Z16	X17	Y17	Z17
51	1.666667	0.026331	-0.235037	0.025972	0.047486	-0.333917	0.020698	-0.050349	-0.286834	-0.028648	0.093460	-0.127562	0.017641	-0.199958	-0.597567	-0.078891	-0.233166	-0.500574	-0.284434	-0.030577	-0.744139	-0.442484	-0.062578	-0.604835	-0.652504	-0.078392	-0.862575	-0.501061	-0.163464	-0.681057	-0.728239	0.261923	0.286536	0.221551	0.385921	0.052269	0.212725	0.103148	0.281421	0.068662	0.611046	-0.034822	0.296757	-0.148628	0.322449	0.018417	0.622566	-0.179193	0.510182	-0.214280	0.417728	0.254649
52	1.700000	0.034500	-0.262759	0.036331	0.104949	-0.326641	0.073582	-0.003771	-0.363865	0.021698	0.049562	-0.151996	-0.033395	0.198010	-0.693648	0.118805	-0.111753	-0.720524	-0.077030	0.242241	-0.858309	-0.268283	-0.055381	-0.826025	-0.478703	0.272049	-0.992641	-0.273281	-0.074387	-0.955252	-0.547815	0.020286	0.314806	-0.093588	0.226968	0.143761	-0.090725	-0.143149	0.201449	-0.147380	0.447274	0.088848	0.037161	-0.381668	0.115154	-0.067310	0.346787	0.185929	0.253847	-0.570621	0.132331	0.117006
53	1.733333	-0.029049	-0.234793	0.037507	-0.017395	-0.332974	0.009089	-0.122600	-0.287465	0.045508	0.013266	-0.119592	-0.007603	-0.101113	-0.713409	-0.003818	-0.307392	-0.603407	-0.019940	-0.341352	-0.636293	-0.342069	-0.174506	-0.566455	-0.412586	-0.393112	-0.753375	-0.400890	-0.265471	-0.669738	-0.467214	0.154342	0.350967	-0.026421	0.273606	0.135559	-0.146243	-0.048718	0.291139	0.008201	0.463565	-0.003400	-0.254686	-0.304890	0.340643	0.049881	0.628598	-0.007961	-0.056572	-0.345216	0.544673	0.215129
54	1.766667	-0.006848	-0.233230	0.030515	0.012420	-0.333625	0.005885	-0.104605	-0.281244	0.012454	0.053267	-0.121994	-0.001938	0.057671	-0.722473	-0.075942	-0.389709	-0.545744	0.021456	-0.101835	-0.669288	-0.463825	-0.381805	-0.789140	-0.318566	-0.095948	-0.778153	-0.555511	-0.499796	-0.876418	-0.342755	0.237433	0.330088	-0.061627	0.378398	0.087672	-0.083207	0.037852	0.285189	-0.098854	0.539144	-0.065499	-0.212613	-0.157908	0.467411	-0.099839	0.759546	-0.098016	-0.084513	-0.058288	0.623558	0.088875
55	1.800000	0.035559	-0.244515	0.034674	0.104335	-0.312785	0.061587	-0.002357	-0.344622	0.005218	0.045857	-0.127173	-0.010493	0.031269	-0.653256	0.239288	-0.164949	-0.707199	0.074909	0.155521	-1.028524	0.082972	-0.124011	-1.045466	-0.167674	0.125175	-1.118038	0.187399	-0.195107	-1.157582	-0.104651	-0.068290	0.356586	-0.037639	0.183922	0.269065	0.020468	-0.172864	0.191020	-0.118964	0.353279	0.440979	0.123528	-0.401721	0.067645	-0.139134	0.292637	0.535491	0.358673	-0.529083	0.093401	0.091011
56	1.833333	-0.011844	-0.272860	0.043432	0.034625	-0.359997	0.070783	-0.087147	-0.345591	0.067193	0.007361	-0.182867	-0.042908	-0.067281	-0.587645	0.365983	-0.307484	-0.654224	0.053013	-0.082013	-0.996287	0.245329	-0.200949	-0.721678	-0.343832	-0.085483	-1.080337	0.357691	-0.287693	-0.836498	-0.376901	0.064947	0.306754	-0.150959	0.243199	0.101729	-0.176820	-0.135455	0.204584	-0.150368	0.487989	0.104319	-0.242670	-0.381610	0.149679	-0.167732	0.593556	0.198601	-0.026467	-0.508430	0.217521	0.052584
57	1.866667	0.031933	-0.211799	0.028543	0.106589	-0.283322	0.008762	-0.011840	-0.281528	-0.046007	0.037714	-0.083585	0.048524	0.341082	-0.597440	-0.066364	-0.162420	-0.551082	-0.282430	0.611753	-0.556510	-0.392013	-0.010355	-0.478751	-0.667278	0.704705	-0.660550	-0.406497	-0.076617	-0.551655	-0.778077	-0.068190	0.401292	0.148857	0.162346	0.266041	0.199054	-0.180647	0.264894	0.008982	0.386775	0.310986	0.315583	-0.406023	0.218160	-0.117024	0.253459	0.357156	0.531740	-0.596195	0.308413	0.037647
58	1.900000	0.018922	-0.273649	0.041067	0.111326	-0.318151	0.055322	0.003689	-0.382283	0.062001	-0.021639	-0.178236	-0.036426	0.321301	-0.597966	0.221547	-0.019444	-0.737624	0.220544	0.488198	-0.924344	0.007797	0.068146	-0.938775	-0.136146	0.552095	-0.991231	0.112055	0.034679	-1.075472	-0.095940	-0.275315	0.244063	-0.126976	0.011598	0.209657	-0.098877	-0.337180	0.048540	-0.175118	0.252551	0.280553	-0.106577	-0.404407	-0.173400	-0.261327	0.253176	0.307295	0.148444	-0.609729	-0.176412	-0.105577
59	1.933333	0.029979	-0.222101	0.030070	0.123777	-0.266078	0.020732	0.020197	-0.312326	-0.027812	-0.016007	-0.098835	0.020340	0.462065	-0.462549	-0.038593	0.262583	-0.569978	-0.129651	0.375691	-0.359136	-0.435722	0.412522	-0.256364	-0.357495	0.491895	-0.403684	-0.502891	0.486499	-0.349912	-0.444949	-0.167098	0.371879	0.083906	0.066836	0.251493	0.114913	-0.293062	0.233743	-0.051384	0.262552	0.325253	0.276230	-0.532064	0.145962	-0.124100	0.116762	0.284615	0.489855	-0.745295	0.191192	0.028389
60	1.966667	-0.043302	-0.269612	0.062059	-0.015759	-0.367643	0.071405	-0.116025	-0.321414	0.125679	-0.038801	-0.187319	-0.035868	-0.013960	-0.748645	0.156734	-0.158382	-0.644185	0.311744	-0.224475	-0.791155	-0.205808	-0.390986	-0.814660	0.011494	-0.218154	-0.932200	-0.213204	-0.432715	-0.948113	0.059226	0.084463	0.202675	-0.328775	0.220277	-0.019641	-0.264394	-0.124247	0.158741	-0.270708	0.400293	-0.152083	-0.388995	-0.380208	0.187970	-0.247479	0.637621	-0.085334	-0.309110	-0.452532	0.436705	-0.196014
61	2.000000	-0.022620	-0.247214	0.039421	0.009885	-0.341811	0.027989	-0.102213	-0.318963	0.058466	0.001297	-0.137581	-0.022984	-0.144418	-0.684615	0.053824	-0.151388	-0.661723	0.234749	-0.392306	-0.854445	-0.253225	-0.246494	-0.971727	-0.026741	-0.435035	-0.988806	-0.255608	-0.265801	-1.093595	0.050751	0.177913	0.308960	0.017545	0.221684	0.120497	-0.174636	-0.011237	0.272537	0.110310	0.298550	-0.059975	-0.340004	-0.172034	0.304741	0.303054	0.411003	-0.297971	-0.353820	-0.251606	0.205846	0.532553
62	2.033333	-0.015066	-0.224556	0.031895	0.012209	-0.316586	0.002001	-0.103159	-0.286248	0.012661	0.028886	-0.104756	0.007776	-0.134186	-0.661570	0.102020	-0.271108	-0.589562	-0.134704	-0.470213	-0.764565	-0.141535	-0.409562	-0.492045	-0.517886	-0.498597	-0.901827	-0.134604	-0.472284	-0.619216	-0.552484	0.194646	0.315004	0.230170	0.334482	0.100028	0.102394	0.001307	0.300876	0.167539	0.530147	0.044132	-0.046001	-0.175595	0.491228	0.220367	0.613813	-0.134205	0.115788	-0.125350	0.534446	0.473348
63	2.066667	-0.004515	-0.267351	0.038200	0.042041	-0.357985	0.061403	-0.083598	-0.340502	0.047775	0.022987	-0.171584	-0.039784	0.121134	-0.649228	0.332715	-0.200581	-0.693301	0.014340	0.228176	-0.999472	0.123320	-0.334992	-0.754001	-0.377649	0.264587	-1.080189	0.230356	-0.394990	-0.884629	-0.410403	0.067374	0.281696	-0.247009	0.243961	0.078911	-0.235001	-0.131247	0.194464	-0.193918	0.469487	0.037266	-0.342518	-0.384736	0.190446	-0.238804	0.597288	0.084634	-0.126107	-0.376602	0.448434	-0.195217
64	2.100000	-0.004233	-0.209335	0.026382	0.053314	-0.280585	-0.025255	-0.077765	-0.277548	-0.018613	0.007783	-0.083825	0.038172	0.241458	-0.592415	-0.201556	-0.175279	-0.598035	-0.198690	0.265907	-0.281061	-0.490286	-0.173485	-0.266042	-0.453604	0.344568	-0.273029	-0.607298	-0.209097	-0.232761	-0.595795	-0.067207	0.418949	-0.041380	0.115815	0.251658	-0.123546	-0.207048	0.279001	0.092404	0.251447	0.260796	-0.337918	-0.463985	0.249520	0.121808	0.508645	0.288089	-0.305663	-0.687416	0.342335	0.235777
